<svg width="274" height="75" viewBox="0 0 274 75" fill="none" xmlns="http://www.w3.org/2000/svg">
<path d="M258.816 26.8038H271.296V29.5323H258.816V61.3839C258.816 64.3711 259.104 66.4949 259.639 67.8097C259.917 68.4171 260.324 68.8579 260.861 69.1534C261.407 69.454 262.118 69.6202 263.02 69.6202C264.742 69.6202 266.27 68.7704 267.609 66.9445L267.615 66.9357L267.872 66.5851C269.133 64.7878 269.984 62.3701 270.397 59.3009L270.462 58.8136L270.95 58.8712L272.582 59.0636L273.078 59.1222L273.021 59.6173C272.5 64.1067 271.063 67.7315 268.676 70.4503L268.671 70.4542C266.231 73.1653 262.253 74.46 256.876 74.4601C251.676 74.4601 247.584 73.4603 244.663 71.3956L244.384 71.1925C241.383 68.9416 239.96 64.9042 239.96 59.2716V29.5323H234.68V26.8038H239.96V14.5284L240.34 14.4347L258.196 10.0187L258.816 9.86536V26.8038Z" fill="#F9CCC4" stroke="black"/>
<path d="M163.498 25.844C166.607 25.844 169.169 26.7399 171.134 28.5696H171.133C173.179 30.3498 174.173 32.8985 174.173 36.136C174.173 39.082 173.541 41.463 172.217 43.22L171.943 43.5627C170.41 45.3748 168.07 46.2356 165.034 46.2356C162.032 46.2356 159.721 45.2275 158.199 43.1516L158.192 43.1428C156.722 41.0436 156.598 38.2052 157.643 34.7434L157.75 34.3879H161.261C161.572 33.7163 161.768 33.1392 161.86 32.6526C161.965 32.0984 161.93 31.6949 161.811 31.4065C161.596 30.8853 160.98 30.4925 159.562 30.4924C157.583 30.4924 155.749 31.6854 154.084 34.3079L153.753 34.8518C152.014 37.8341 151.133 41.392 151.133 45.5442V70.7717H157.95V73.5002H126.998V70.7717H132.278V29.5325H126.998V26.804H151.133V33.5901C152.071 31.5541 153.403 29.895 155.139 28.6282C157.594 26.7731 160.385 25.844 163.498 25.844Z" fill="#F9CCC4" stroke="black"/>
<path d="M30.5957 0.5V32.5195C31.7141 30.6063 33.1006 29.0915 34.7637 27.9912C36.9393 26.5519 39.5521 25.8438 42.5762 25.8438C48.6817 25.8438 53.3336 27.8841 56.4395 32.0195C59.5251 36.1283 61.0283 42.2319 61.0283 50.248C61.0283 58.4282 59.3561 64.5557 55.9141 68.5273L55.9131 68.5264C52.5267 72.508 47.4405 74.46 40.752 74.46C37.385 74.46 34.7246 73.9442 32.8242 72.8584L32.8174 72.8545C31.4971 72.0721 30.4863 70.9299 29.7715 69.4551L29.3447 73.0586L29.292 73.5H6.45996V70.7725H11.7402V3.22754H6.45996V0.5H30.5957ZM37.2959 30.9717C35.7831 30.9717 34.3438 31.8438 32.9941 33.793L32.7256 34.1973C31.3239 36.3912 30.5957 39.4526 30.5957 43.4316V61.2881C30.5957 63.9743 31.1264 66.2206 32.1621 68.0488C33.2333 69.8285 34.6782 70.6758 36.5283 70.6758C37.4605 70.6757 38.2212 70.3705 38.8428 69.7627C39.4768 69.1427 39.9948 68.1787 40.3652 66.8203L40.502 66.2812C41.1612 63.4592 41.5 58.7686 41.5 52.168V47.1758C41.5 40.5749 41.1774 36.2279 40.5596 34.0654L40.5586 34.0615C40.2538 32.9644 39.8183 32.1953 39.2852 31.7031C38.7624 31.2206 38.1109 30.9717 37.2959 30.9717Z" fill="#F9CCC4" stroke="black"/>
<path d="M94.6786 25.844C87.2743 25.844 81.744 28.6646 78.1522 33.385C74.5733 38.0885 72.9599 44.6229 73.2509 51.9954L73.2694 52.4758H100.318C100.276 58.4688 99.482 62.9469 97.9755 65.9602L97.829 66.2415C97.0837 67.6217 96.1016 68.652 94.8856 69.3508C93.5854 70.0981 91.9872 70.4836 90.0702 70.4836C86.4515 70.4836 83.4978 69.5187 81.1708 67.6204C78.8388 65.718 77.0914 62.8417 75.9589 58.9407L75.8348 58.5139L75.3964 58.5872L73.6678 58.8752L73.1268 58.9651L73.2675 59.4954C74.5057 64.1878 76.7646 67.8688 80.0594 70.5061L80.0585 70.5071C83.3219 73.1711 88.1931 74.4602 94.5829 74.4602C102.919 74.4601 109.277 72.3265 113.562 67.9749L113.568 67.969C117.775 63.5645 119.85 57.5073 119.85 49.8635C119.85 42.1416 117.51 36.1652 112.767 32.0159L112.766 32.0139L112.313 31.6331C107.609 27.7649 101.719 25.844 94.6786 25.844ZM95.4462 28.6682C96.2395 28.6682 96.9157 28.892 97.495 29.3333C98.081 29.7797 98.5958 30.4702 99.0204 31.4407C99.8081 33.3251 100.226 36.6886 100.226 41.6077V49.3635H91.3387V41.6077C91.3388 36.4171 91.6623 32.9774 92.2714 31.2112L92.2772 31.1917C92.5443 30.3013 92.9454 29.6806 93.452 29.2805C93.9552 28.8833 94.6077 28.6683 95.4462 28.6682Z" fill="#F9CCC4" stroke="black"/>
<path d="M203.961 25.844C196.557 25.844 191.026 28.6646 187.435 33.385C183.856 38.0885 182.242 44.6229 182.533 51.9954L182.552 52.4758H209.601C209.559 58.4688 208.765 62.9469 207.258 65.9602L207.111 66.2415C206.366 67.6217 205.384 68.652 204.168 69.3508C202.868 70.0981 201.27 70.4836 199.353 70.4836C195.734 70.4836 192.78 69.5187 190.453 67.6204C188.121 65.718 186.374 62.8417 185.241 58.9407L185.117 58.5139L184.679 58.5872L182.95 58.8752L182.409 58.9651L182.55 59.4954C183.788 64.1878 186.047 67.8688 189.342 70.5061L189.341 70.5071C192.604 73.1711 197.476 74.4602 203.865 74.4602C212.201 74.4601 218.559 72.3265 222.845 67.9749L222.851 67.969C227.058 63.5645 229.133 57.5073 229.133 49.8635C229.133 42.1416 226.792 36.1652 222.05 32.0159L222.048 32.0139L221.596 31.6331C216.891 27.7649 211.001 25.844 203.961 25.844ZM204.729 28.6682C205.522 28.6682 206.198 28.892 206.777 29.3333C207.363 29.7797 207.878 30.4702 208.303 31.4407C209.091 33.3251 209.509 36.6886 209.509 41.6077V49.3635H200.621V41.6077C200.621 36.4171 200.945 32.9774 201.554 31.2112L201.56 31.1917C201.827 30.3013 202.228 29.6806 202.734 29.2805C203.238 28.8833 203.89 28.6683 204.729 28.6682Z" fill="#F9CCC4" stroke="black"/>
<path d="M252.856 26.8038H265.336V29.5323H252.856V61.3839C252.856 64.3711 253.144 66.4949 253.679 67.8097C253.957 68.4171 254.364 68.8579 254.901 69.1534C255.447 69.454 256.159 69.6202 257.06 69.6202C258.782 69.6202 260.31 68.7704 261.649 66.9445L261.656 66.9357L261.912 66.5851C263.173 64.7878 264.024 62.3701 264.437 59.3009L264.502 58.8136L264.99 58.8712L266.622 59.0636L267.118 59.1222L267.061 59.6173C266.54 64.1067 265.103 67.7315 262.716 70.4503L262.711 70.4542C260.271 73.1653 256.293 74.46 250.916 74.4601C245.716 74.4601 241.624 73.4603 238.703 71.3956L238.424 71.1925C235.423 68.9416 234 64.9042 234 59.2716V29.5323H228.72V26.8038H234V14.5284L234.38 14.4347L252.236 10.0187L252.856 9.86536V26.8038Z" fill="white" stroke="black"/>
<path d="M197.841 25.844C190.437 25.844 184.906 28.6646 181.315 33.385C177.736 38.0885 176.122 44.6229 176.413 51.9954L176.432 52.4758H203.481C203.439 58.4688 202.645 62.9469 201.138 65.9602L200.991 66.2415C200.246 67.6217 199.264 68.652 198.048 69.3508C196.748 70.0981 195.15 70.4836 193.233 70.4836C189.614 70.4836 186.66 69.5187 184.333 67.6204C182.001 65.718 180.254 62.8417 179.121 58.9407L178.997 58.5139L178.559 58.5872L176.83 58.8752L176.289 58.9651L176.43 59.4954C177.668 64.1878 179.927 67.8688 183.222 70.5061L183.221 70.5071C186.484 73.1711 191.356 74.4602 197.745 74.4602C206.081 74.4601 212.439 72.3265 216.725 67.9749L216.731 67.969C220.938 63.5645 223.013 57.5073 223.013 49.8635C223.013 42.1416 220.672 36.1652 215.93 32.0159L215.928 32.0139L215.476 31.6331C210.771 27.7649 204.881 25.844 197.841 25.844ZM198.609 28.6682C199.402 28.6682 200.078 28.892 200.657 29.3333C201.243 29.7797 201.758 30.4702 202.183 31.4407C202.971 33.3251 203.389 36.6886 203.389 41.6077V49.3635H194.501V41.6077C194.501 36.4171 194.825 32.9774 195.434 31.2112L195.44 31.1917C195.707 30.3013 196.108 29.6806 196.615 29.2805C197.118 28.8833 197.77 28.6683 198.609 28.6682Z" fill="white" stroke="black"/>
<path d="M157.538 25.844C160.647 25.844 163.209 26.7399 165.174 28.5696H165.173C167.219 30.3498 168.213 32.8985 168.213 36.136C168.213 39.082 167.581 41.463 166.257 43.22L165.983 43.5627C164.45 45.3748 162.11 46.2356 159.074 46.2356C156.072 46.2356 153.761 45.2275 152.239 43.1516L152.232 43.1428C150.762 41.0436 150.638 38.2052 151.683 34.7434L151.791 34.3879H155.301C155.612 33.7163 155.808 33.1392 155.9 32.6526C156.005 32.0984 155.97 31.6949 155.851 31.4065C155.636 30.8853 155.02 30.4925 153.602 30.4924C151.623 30.4924 149.789 31.6854 148.125 34.3079L147.793 34.8518C146.054 37.8341 145.173 41.392 145.173 45.5442V70.7717H151.99V73.5002H121.038V70.7717H126.318V29.5325H121.038V26.804H145.173V33.5901C146.111 31.5541 147.443 29.895 149.179 28.6282C151.634 26.7731 154.425 25.844 157.538 25.844Z" fill="white" stroke="black"/>
<path d="M87.6786 25.844C80.2743 25.844 74.744 28.6646 71.1522 33.385C67.5733 38.0885 65.9599 44.6229 66.2509 51.9954L66.2694 52.4758H93.3182C93.2765 58.4688 92.482 62.9469 90.9755 65.9602L90.829 66.2415C90.0837 67.6217 89.1016 68.652 87.8856 69.3508C86.5854 70.0981 84.9872 70.4836 83.0702 70.4836C79.4515 70.4836 76.4978 69.5187 74.1708 67.6204C71.8388 65.718 70.0914 62.8417 68.9589 58.9407L68.8348 58.5139L68.3964 58.5872L66.6678 58.8752L66.1268 58.9651L66.2675 59.4954C67.5057 64.1878 69.7646 67.8688 73.0594 70.5061L73.0585 70.5071C76.3219 73.1711 81.1931 74.4602 87.5829 74.4602C95.9189 74.4601 102.277 72.3265 106.562 67.9749L106.568 67.969C110.775 63.5645 112.85 57.5073 112.85 49.8635C112.85 42.1416 110.51 36.1652 105.767 32.0159L105.766 32.0139L105.313 31.6331C100.609 27.7649 94.7188 25.844 87.6786 25.844ZM88.4462 28.6682C89.2395 28.6682 89.9157 28.892 90.495 29.3333C91.081 29.7797 91.5958 30.4702 92.0204 31.4407C92.8081 33.3251 93.2264 36.6886 93.2264 41.6077V49.3635H84.3387V41.6077C84.3388 36.4171 84.6623 32.9774 85.2714 31.2112L85.2772 31.1917C85.5443 30.3013 85.9454 29.6806 86.452 29.2805C86.9552 28.8833 87.6077 28.6683 88.4462 28.6682Z" fill="white" stroke="black"/>
<path d="M24.6357 0.5V32.5195C25.7541 30.6063 27.1407 29.0915 28.8037 27.9912C30.9794 26.5519 33.5921 25.8438 36.6162 25.8438C42.7217 25.8438 47.3736 27.8841 50.4795 32.0195C53.5652 36.1283 55.0684 42.2319 55.0684 50.248C55.0684 58.4282 53.3961 64.5557 49.9541 68.5273L49.9531 68.5264C46.5668 72.508 41.4805 74.46 34.792 74.46C31.4251 74.46 28.7646 73.9442 26.8643 72.8584L26.8574 72.8545C25.5371 72.0721 24.5264 70.9299 23.8115 69.4551L23.3848 73.0586L23.332 73.5H0.5V70.7725H5.78027V3.22754H0.5V0.5H24.6357ZM31.3359 30.9717C29.8231 30.9717 28.3839 31.8438 27.0342 33.793L26.7656 34.1973C25.3639 36.3912 24.6358 39.4526 24.6357 43.4316V61.2881C24.6358 63.9743 25.1664 66.2206 26.2021 68.0488C27.2734 69.8285 28.7183 70.6758 30.5684 70.6758C31.5006 70.6757 32.2612 70.3705 32.8828 69.7627C33.5169 69.1427 34.0348 68.1787 34.4053 66.8203L34.542 66.2812C35.2012 63.4592 35.54 58.7686 35.54 52.168V47.1758C35.54 40.5749 35.2174 36.2279 34.5996 34.0654L34.5986 34.0615C34.2938 32.9644 33.8584 32.1953 33.3252 31.7031C32.8025 31.2206 32.1509 30.9717 31.3359 30.9717Z" fill="white" stroke="black"/>
</svg>
